<?xml version="1.0" encoding="UTF-8"?>
<svg id="Layer_1" data-name="Layer 1" xmlns="http://www.w3.org/2000/svg" viewBox="0 0 1166.21 390.14">
  <defs>
    <style>
      .cls-1 {
        fill-rule: evenodd;
      }

      .cls-1, .cls-2 {
        fill: #fff;
      }

      .cls-3 {
        fill: #f5b754;
      }
    </style>
  </defs>
  <path class="cls-3" d="M239.55,286.04c-1.06.36-3.78-1.48-3.6-2.46.14-.73.54-.61,1.12-.24.67.44,2.47,1.78,2.47,2.69M339.06,285.59c1.38,3.18,3.37,6.39,3.6,9.89-2.24-1.76-2.64-5.64-3.63-8.2-.07-.2-2.33-1.61.03-1.69M888.74,295.36c-.37.38-5.77,3.9-6.14,3.99l-1.37-.94c1.43-1.37,5.58-5.7,7.65-4.5.63.36.18,1.11-.14,1.45M810.07,252.76c.91.97-2.55,1.59-3.04,1.68-1.11.21-2.25.07-3.38.21-1.45.19-2.56,1.39-4.38.35-.81-3.72,10.17-2.92,10.8-2.24M803.77,312.13c.41,3.26-1.7,5.79-2.02,9.01-7.14,2.02-1.23-5.76-.02-8.56l2.04-.44ZM792.97,251.41c.48,1.4-1.43.92-1.74,1.42-.3.49.26,1.61-.5,2.41-.91.96-7.71.94-8.92.34-.74-.37-3.33-4.08-1.8-4.75,2.82-1.26,9.49,1.55,12.96.58M766.04,262.3c.77-.48,6.93.45,5.76,1.7-3.97,1.63-7.72.88-11.89.42l-.69,1.63c-1.24.91-5.43-.96-7.13-1.03-1.76-.08-6.72,1.67-5.73-1.47,2.32,1.17,5.09-1.82,6.31-1.79,1.38.04,2.05,3.15,5.64,2.05.81-.25,1.16-1.07,2.45-1.19,1.57-.14,3.71,1.14,4.45.91.55-.17.58-1.07.82-1.22M792.06,259.05c-4.12.36-8.25.24-12.38.46-4.22.21-9.39.92-13.53.91-3.64,0-7.63-1.24-11.46-.47,1.95-3.12,6.29-1.1,9.69-1.33,8.42-.56,14.86-.66,23.4-.43,1.42.04,4.1-1.61,4.28.86M1079.01,349.13c-.4.4-.23,1.79-.7,2.46-.72,1.03-2.97,3.23-3.77,4.33-1.57,2.15-1.76,5.31-5.55,4.8-.83-.85,3.99-6.37,3.59-8.08l-2.23-1.14c3.24-1.57,6.01-3.27,8.1-6.3.89-1.31,1.53-3.48,2.23-4.51.58-.85,3.44-4,4.02-2.17.75,2.4-2.05,3.69-2.75,5.68-.52,1.48-.11,3.34-1.46,4.4-.44.34-1.24.31-1.47.54M76.87,374.78c.27.28.74,1.4.57,1.65-1.7,1.03-3.63.69-5.32,1.22-1.07.33-1.61,1.32-2.56,1.5-2.04.4-4.22-.76-6.28-.91-6.75-.47-13.75.53-20.5.47,1.32-2.07,4.36-.88,6.2-1.65.74-.31.75-1.28,1.47-1.71,2.14-1.25,5.01-.13,7.44-.23,4.73-.2,11.35-1.71,15.77-1.4.92.07,2.61.41,3.23,1.05M107.17,319.11c-.32-2.94-1.67-4.14-2.99-6.56l-5.56-.86c2.84-.22,7.93-.07,9.85-2.53,1.27-1.63,1.11-4.16,1.62-6.02.49-1.8,2.21-4.16,1.37-6.28l-4.28,4.5c-.07-.78.05-1.52.2-2.27,1.4-7.15,9.31-17.59,13.23-24.13,3.06-5.1,4.73-9.31,8.65-14.3,1.48-1.88,6.08-5.55,6.12-7.86.02-1.44-5.02-1-6.38-.94-4.6.16-10.26.51-14.83.92-11.18,1-23.01,7.51-33.26,12.2-8.98,4.11-20.32,8.84-28.76,13.55-.72.41-1.53,1-2.15,1.55-.34,1.23.41,4.39,1.33,5.33.72.72,1.69.69,2.44,1.16.65.42,1.08,1.17,1.67,1.48,1.86.96,13.52.42,16.42.27,3.44-.18,9.95-.34,13.03-.93,1.13-.21,1.63-1.48,2.77-1.68l11.41,2.38c.36.75-.77.89-1.24.99-3.95.88-7.7.32-11.61.56-6.7.41-13.57.77-20.24,1.37-1.31.12-7.75.59-7.92,1.62.3,1.5.88,2.96,1.5,4.33,2.77,6.05,7.28,11.76,10,17.9.34.76.11,1.96.31,2.19.14.16.91-.14,1.32.32,1.47,1.65,5.22,10,6.63,12.63,1.5,2.8,3.05,5.32,4.69,7.91.94,1.49,1.32,4.59,1.46,4.81,1.56,2.48,3.46,4.87,4.92,7.72,2.24,4.39,4.84,9.5,6.67,14.03.8,1.97,1.86,3.98,1.71,6.16l-2.22-1.7c-15.74-18.85-23.45-48.09-46.01-59.65-3.7-1.52-6.99-3.32-10.35-5.4l-14.8-6.57c-.56,2.1,1.11,2,1.81,2.91,3.57,4.65,7.6,9.21,10.64,14.12.47.75,1.48,2.15.39,2.76l-18.36-19.03c-1.53-.96-2.72-.86-4.37-.31,0-4.38-6.5-.63-8.87.36-1.44.61-3.15,1.42-4.42,2.33l-.67-1.34c2.38-.48,4.31-2.33,2.25-4.5,1.88-.61,10.86-.35,9.25-4.04-.6-1.35-5.08-2.76-3.41-3.85,1.04-.67,5.81,1.37,7.47,1.57,4.21.51,5.61-1.85,8.9-3.65,5.72-3.14,12.94-5.85,16.97-10.9-1.38-3.65-4.5-6.22-4.06-10.62l1.37,1.1c.84,2.91,3.05,4.86,4.92,7.22.65.28,5.77-1.76,6.72-2.3,1.04-.58,2.02-1.75,3.06-2.33,26.55-14.88,57.02-28.23,85.71-38.54,1.78-.63,12.15-3.34,12.14-4.51-.28-.86-5.3-3.97-4.5-4.72,2.95-.37,3.97,2.22,6.19,3.03,6.36,2.33,13.09-1.79,18.92-3.36,18.89-5.07,37.72-7.42,57.01-10.07,13.24-1.82,33.63-6.12,46.44-4.9,9.18.87,18.13.23,27.44-.02,36.66-.97,73.18-2.41,109.91-1.8,6.7.11,20.4,2.55,25.66-1.31,1.23-.91,1.74-3.12,3.03-3.73,2.23-1.06,6.81-1.11,8.86-2.84,2.9-2.44,7.26-4.99,10.98-6.57,15.31-6.52,31.02-13.73,46.61-20.01,2.32-.94,6.74-1.52,8.48-3,4.88-4.17,4.92-2.36,9.87-4.3,1.24-.49,1.68-1.65,2.76-2.19,4.34-2.18,17.05-5.93,22.1-7.17,34.77-8.51,68.22-14.06,103.89-17.22,32.54-2.89,69.61-.8,102.21,1.8,7.29.58,16.22,2.61,23.87,3.6,21.78,2.8,43.52,4.62,65.29,7.2,7.72.91,14.43,3.1,21.66,4.45,4.1.77,14.21-.34,16.82,2.09.66.61.8,1.55,1.37,2.22l-1.12.69c-8.15-.77-16.63-2.64-24.76-3.15-.89-.06-2.88-.51-2.47.89,3.88.72,7.72,1.87,11.61,2.58,39.96,7.37,79.89,16.58,119.45,25.97,14.48,3.44,28.37,8,43.05,10.52,31.66,5.44,66.17,1.6,98.17.23,2.5-.1,5.63.37,8.19.13,4.17-.37,11.47-2.95,15.27-1.35.78.33,1.51,2.44,3.52,2.38.55,2.75-3.33,1.96-5.22,2.5-2.82.78-6.23,3.17-8.69,4.81-7.89,5.26-14.77,11.8-22.23,17.6-.38.45-.72,1.24-.55,1.82.44,1.48,20.75,9.55,23.77,10.92,1.53.69,3.84,2.82,5.59,2.44.34-.07,1.7-2.84,3.64-2.24l.71,1.05c-.32,1.2-.88,2.55,0,3.68l11.74,7.15.4,1.99c-1.75,1.15-5.61.57-6.96,1.81-.56.52-.47,1.31-.97,1.85-1.37,1.45-4.84,2.78-6.53,4.02-4.16,3.06-9.44,7.63-13.42,11.01-7.52,6.39-12.03,14.42-17.61,22.45-10.51,15.14-20.19,30.89-30.99,45.96-1.12,1.57-3.13,7.09-4.89,3.68l1.73-5.26-4.03,2.95-.9-.47c1-5.49,2.58-10.09,5.29-14.94,6.03-10.72,15.17-22.28,22.17-32.74.89-1.34,2.98-3.17,3.56-4.19.8-1.42,1.15-4.23,2.27-5.61.88-1.08,3.27-1.85,4.75-3.48,1.13-1.24,1.85-2.97,2.93-4.27,2.64-3.19,5.46-6.28,8.06-9.52-1.71-3.46-7.08-3.35-10.56-3.75-12.57-1.46-25.55-1.14-38.21-1.42l-.72-.61c1.32-2.36,9.08-.86,9.41-2.29l-.41-1.54c1.92-.1,5.26-2.25,6.98-2.25h9.23l-.45-1.79c4.06,1,8.42-1.65,12.01-1.77,2.78-.1,7.43,1.03,10.27.87,1.84-.1,3.61-1.16,5.41-1.36,2.81-.3,6.25.39,8.99-.02,1.37-.21,3.16-1.57,4.53-1.57,2.01,0,3.51,2.74,6.08,1.14.75-1-5.34-1.95-5.77-2.1-1.66-.58-3.29-1.99-5.04-2.61-11.09-3.99-22.32-7.53-33.14-12.33-4.98-3.94-.63-3.33,1.16-5.24,1.65-1.76,3.06-4.2,4.74-6.05,3.22-3.55,9.07-6.73,12.98-9.53,1.1-.78,5.88-4.13,6.37-4.86.22-.33.34-.42.24-.9-1.76-.89-2.87.41-4.41.77-4.58,1.07-8.8,1.43-13.32,1.99-18.81,2.36-37.73,3.63-56.57,5.35-.12.9-.08.74.56,1.01,1.62.69,3.41.1,5.04.36,1.75.28,3.9,1.48,5.93,1.72,4.99.58,10.06-.14,15.04.95.48,1.63-1.32,2.92-2.69,3.38-2.22.76-13.47,1.06-16.44,1.14-2.11.05-4.56-.44-6.32-.38-12.15.41-27.66.77-39.49,3.65-2.41.58-4.54,2.1-6.54,2.46-2.22.4-5.75.12-7.88,1.02-.7.3-1.2,2.4-2.42,3.09-2.16,1.21-5.77.89-8.7,3-7.12,5.1-3.93,11.19.63,16.4,2.28,2.6,5.06,5,7.45,7.5l-.09,1.42-3.95,1.44c-.58,2.58,2.15,2.95,3.43,4.18,4.45,4.32,9.68,12.32,13.19,17.52,6.84,10.11,11.24,21.19,15.81,32.45,1.57,3.88.78,6.81,1.34,10.35.18,1.13,1.03,1.88,1.23,2.83.27,1.31.66,6,.1,7.01-.16.27-.74.29-1.03.87-.76,1.54-1.3,5.37-4.17,3.53-2-1.28-.6-2.75-.76-4.21-.16-1.39-.62-3.98-.9-5.4-.23-1.14-1.85-6.73-2.4-7.51-.73-1.04-3.24-1.62-4.53-1.77-6.21-.77-12.69-.32-18.87-.49-20.63-.59-41.09-1.32-61.7-2.24-19.1-.85-38.14-2.84-57.15-3.6-1.79-.07-3.62.09-5.41-.02-5.23-.32-10.34-2.16-15.54-2.7-.97-1.04,2.47-1.33,2.91-1.36,9.54-.72,21.59,1.91,31.11.94,5.09-.52,7.69-.7,13.01-.45,10.87.52,22.5-.87,33.79-.01,2.65.2,5.77,1.28,8.54,1.36,22.44.63,45.25,2.15,67.59,4.9,1.4.17,2.84-.04,4.25.04.13-.65-.15-1.11-.35-1.68-3.96-10.78-11.44-24.22-18.77-32.99-.88-1.06-.57-2.53-2.94-2.22l1.35,3.59c-.75.08-1.45-.02-2.14-.33-2.73-1.22-6.5-7.77-8.87-9.13-1.17-.66-2.93-.43-3.71-1.01-.41-.31-.64-1.37-1.09-1.83-8.2-8.44-16.62-10.97-27.5-13.92-1.59-.43-8.27-3.12-9.1-3.04-.3.03-.4.94-1.01,1.3-2.87,1.68-4.94,2.22-8.03,4.58-16.3,12.5-32.46,25.52-49.16,37.71-.59.61-6.21,1.57-4.9-.4,2.28-2.23,5.82-3.91,8.13-5.83,2.72-2.25,3.09-3.63,4.53-6.28,2.12-3.92,22.02-19,26.98-22.98,1.1-.89,2.29-2.37,3.28-3.15,1.28-1.01,7.95-4.53,7.7-5.98l-.84-1.66,1.35-.89c-5.03-.45-10.05-1.92-15.09-2.25-28.82-1.86-44.78,3.85-70.07,15.47-1.76.81-7.66,2.5-8.65,3.4-.49.44-.27,1.24-1.01,1.79-.7.52-2.14.6-3,1.06-4.67,2.5-18.56,15.77-21.71,20.15-.63.89-1.23,3.31-2.06,4.69-1.68,2.76-4.62,5.26-6.47,7.93-1.96,2.82-2.73,5.67-4.15,8.45-.61,1.2-2.53,4.8-3.63,4.9-1.03.09-2.17-1.03-2.32-2.02-.04-.3.29-4.84.38-5.29.22-1.24,1.53-1.55,1.74-2.36.2-.8-.35-1.62-.29-2.49.16-2.27,3.46-5.84,4.59-8.02,3.14-6,4.67-8.11,8.82-13.36,2.1-2.66,4.25-5.29,6.29-7.98.34-1.14-1.27-.49-1.99-.69-.3-.08-3.37-1.11-2.5-1.77,3.25.4,5.65-.68,7.94-2.86.63-.61,1.07-1.88,1.65-2.4,1.14-1.02,4.95-2.19,5.18-4.05.08-.63-1.21-1.34-.26-2.29l4.39-2.36-.21-.89c-2.19-.29-3.67,1.1-5.52,1.68-1.5.47-3.25.62-4.69,1.17-4.13,1.59-7.84,4.92-12.52,4.36-.13-1.51,1.62-1.17,2.72-1.99,1.14-.83,1.24-2.31,1.38-2.44.3-.27,1.96.07,2.78-.16.46-.13,2.92-2.26,4.7-2.95,7.08-2.75,15.35-4.62,22.64-7.08,16.78-5.66,33.47-11.28,49.77-18.2,1.74-.73,5.18-2.28,6.67-3.23.62-.4,1.34-.87,1.19-1.73-.78-.09-1.51.04-2.27.21-5.26,1.14-13.6,4.38-18.88,6.33-7.96,2.94-15,6.64-23.09,8.87-2.4.66-4.67,3.08-7.53,2.59-.11-.69,0-1.05.42-1.6.78-1.03,7.21-3.65,8.9-4.6,8.97-5.03,16.47-7.92,25.93-11.89,1.97-.82,5.73-.89,5.28-3.96,4.57,1.11,9.97,1,13.9-1.62-.05-.56-.21-1.23-.74-1.52-2.57-1.41-9.83-1.51-12.94-1.8-1.13-.11-5.07-1.48-5.63-.21-.3.67,3.58,2.8,4.06,3.58l.89,1.58c-1.43-.25-2.95-.64-4.2-1.42-3.25-2-1.9-4.43-6.79-3.93-9.38.97-18.89,1.13-28.35,2.26-15.03,1.8-30.04,4.44-45.1,6.23-2.73.32-6.17-.04-8.98.48-1.48.28-2.21,1.53-3.65,1.76-4.13.64-9.61-.21-13.95,0-14.9.72-33.56,6.28-48.18,4.99-1.65-.15-2.97-.96-4.48-.96-1.69,0-4.46,1.54-5.63-.41,1.55-.73,2.94-1.41,4.61-1.92,30.32-9.29,64.53-13.44,95.8-19l1.35-1.12-8.79-.93c-14.72.92-29.33.17-44.11.94-108.28,5.62-216.8,13.61-325.11,21.59-25.01,2.41-50.17,3.82-75.23,5.37-22.47,1.39-44.71,4.43-67.02,6.82-.7.07-1.37.44-2.08.4-1.23,1.35,6.76,7.02,7.88,8.09.9.87,2.22,2.25,3.11,3.2,5.91,6.25,11.13,13.75,16.49,20.41,7.52.35,15.14-1.36,22.72-1.57,32.15-4.32,64.48-6.19,96.82-8.55,63.5-4.61,127.15-7.31,190.95-9.87,8.82-.35,21.89-2.62,30.1-1.77,15.97,1.65,30.03,1.88,45.98,1.31,3.76-.13,16.01.49,19.34,1.37,1.23.32,1.52,1.31,2.69,1.81.8.34,3.71.94,4.55.91,2.52-.1,2.49-5.16,5.35-5,2.33.13,7.8,5.43,11.53,4.06v-1.81c3.37.27,9.61-1.96,8.11,3.6,1.55-.12,2.61-1.73,4.27-1.73,1.52,0,3.56,1.46,4.72,2.41-.43.65-.86.63-1.54.7-5.68.59-12.82-.79-18.01,0-1.3.2-3.18,1.59-4.16,1.67-.65.05-1.91-.78-2.93-.92-2.67-.38-8.42-2.03-8.93,1.48l8.7.07.75,1.28c-7.33,2.41-15.11-.81-22.51.92,2.95,3.79,9.68-2.16,11.12,3.39-1.51,2.19-2.98.21-4.58.18-2.72-.03-6.85,1.17-9.39,1.2-1.69.02-3.7-1.25-4.54-1.2-.75.04-1.47.8-2.32.89-1.95.21-4.08-.1-6.05.02l.27-1.39c.3.21,2.63-.97.85-.88-2.66.14-5.42,2.6-8.48,1.84l-.8-1.76-2.64-.07-.26,1.82c-2.66.49-6.36-1.01-8.96-.94-3.2.1-6.36,1.37-10.4.94-13.47-1.39-28.06-.96-41.83-.94-43.2.07-86.89,1.42-129.95,3.41-27.85,1.29-55.9,2.14-83.95,4.26-2.88.22-4.78,1.18-8.07.86-4.36-.43-2.28-.13-5.92.46-3.43.55-13.47.73-17.08.47-2.75-.2-4.64-1.68-7.55-.34-.97.45-1.53,1.6-2.84,1.69-1.34.08-3.19-1.17-4.84-1.18-3.08-.02-8.08,1.83-11.5,2.28-7.49.98-15.35-.04-22.81.7-1.85.18-3.57,1.37-5.62.9-1.19-1.06,4.2-2.96,4.78-3.01,4.42-.39,8.75-.41,13.31-1.17,1.97-.32,4.23-1.41,6.02-1.63,2.44-.3,7.14,1.06,7.84-1.83-10.45-.19-20.89,1.03-31.28,1.81-3.07.24-6.22-.52-9.16.98-1.22,3.45,3.43,5.43,3.06,9.35l-3.48-2.17c-3.55.51-.09,3.07.47,4.1,1.05,1.9,3.48,7.12,3.47,9.09,0,.89-.04.72-.91.69-.29-1.64-1.12-4.83-3.15-4.5-.55.55,2.37,6.46,2.82,7.75.31.9,2.02,6.2,1.68,6.64-1.93-.38-1.04-1.31-1.47-2.33-2.72-6.45-5.75-13.59-9.16-19.66-.9-1.62-3.99-7.63-5.44-8.06l-54.17,3.51,53.59-5.4c.12-.84-.01-1.32-.43-2.05-.15-.24-3.63-3.63-4.09-4.02-1.58-1.31-4.44-2.4-6.03-4.31-.75-.91-.88-2.22-1.82-3.13-1.29-1.23-2.8-.79-4.25-1.59-1.04-.58-8.26-7.32-8.59-8.08-.86-2.02,3.65,1.58,3.99,1.87,1.66,1.37,3.76,4.7,5.91,4.44-3.41-3.15-6.64-6.67-10.19-9.64-.49-.41-1.06-.41-1.37-.65-.84-.66-1.99-3.15-3.75-2.32.98.91,2.9,1.74,3.15,3.15.12.66-.02.81-.69.69-1.34-.25-3.86-3.2-5.47-3.98-4.27-2.06-9.29-.03-13.81-.13-2.4-2.47,3-1.51,4.33-1.85.25-.07,3.47-1.72,3.47-1.92-3.39-3.13-7.59-4.6-12.04-5.5-14.06-2.85-33.81-4.95-48.06-4.16-9.41.51-19.48,3.93-28.6,6.52-3,.85-5.23,2.64-8.56,2.02-.04.49,0,.98.1,1.47.41,1.9,5.97,6.5,7.79,7.96,1.58,1.27,5.93,3.57,6.84,4.64.63.73.57,2.32,1.14,2.92.38.39,1.64.61,2.29,1.09,3.25,2.36,5.91,5.32,8.9,7.75,6.26,5.09,16.15,11.09,21.41,16.62.23.24,1.13,1.58,1.06,1.64-.9.24-1.23-.3-1.82-.65-6.43-3.77-13.41-10.12-19.65-14.56-7.94-5.66-15.94-10.8-23.77-16.74-4.12-3.12-8.1-8.08-13.75-8.54.4,4.28-4.95,4.67-8.12,4.75-1.4,4-4.84,3.3-7.88,5.14-3.18,1.92-3.09,5.88-7.76,6.42l-.97,4.19-1.82.18-.69-1.34c-1.12,2.43-3.75,3.31-5.38,4.98-.5.52-.73,1.52-1.36,2.24-.55.63-2.05,1.23-2.27,1.74-.18.44.27,1.1.21,1.59-.19,1.57-4.03,3.49-5.14,5.21-1.51,2.36-1.16,4.19-4.16,6.19-.48.32-1.71.35-1.89.6-.24.33.09,3.29-.47,4.7-.49,1.25-1.63,1.7-2.21,2.73-.74,1.28-2.52,6.45-3.46,6.9-.97.18-.68-.45-.69-1.13,0-2.78,3.2-7.47,4.07-10.35.17-.58-.11-.89-.66-.66-2.05.85-4.28,8.72-5.17,11.03-.84,2.19-6.08,11.96-1.59,12.8,4.91-.21,9.99.3,14.88.02,4.27-.24,8.9-1.52,13.05-1.82,29.64-2.1,59.46-4.47,89.14-5.85,3.09-.15,5.25-.39,8.54-.43,2.29-.02,4.3-.5,6.55-.47.18,1.39-1.85,1.58-2.98,1.75-21.78,3.16-45.87,3.22-67.94,5-21.95,1.77-43.82,4.97-65.52,8.55.48,1.56.54,3.11.47,4.74-.03.59-.68,5.45-1.37,4.7-.47-1.31,1.4-9.86-1.96-7.23-.84.66-1.38,9.13-2.1,10.82-.14.14-.89-.58-.89-.67,0-2.52.27-5.7,0-8.1M759.65,159.19c-6.81-.63-13.67-1.62-20.5-2.25-47.39-4.41-94-7.66-140.72,3.82-20.21,4.96-41.69,12.45-60.78,20.7-9.75,4.22-19.17,9.29-28.82,13.72-1.02,1.35,5.91,2.3,6.74,2.93.45.35.75.65.25,1.12-8.62,2.56-17.9,3.49-26.95,3.57l-.75,1.36c7.3-.66,15.11,1.08,22.3.47,4.53-.38,8.58-1.27,13.47-1.38,11.25-.26,22.52-.28,33.81-.76,26.63-1.14,54.5-1.3,80.99-5.12,10.58-1.53,23.63-1.53,33.83-4.9,1.59-.52,3.91-2.05,5.39-2.27,2.14-.3-1.08,2.8-.67,3.15,3.44-.35,6.73-.97,10.14-1.34,5.77-.63,8.12-.8,13.71-2.95,13.82-5.31,27.58-11.07,41.54-16.08,10.99-3.94,22.08-7.66,33.22-11.12.64-.63-.03-.82-.66-.89-3.79-.44-7.75-.96-11.51-.7-19.78,7.15-39.91,13.47-59.5,21.09-4.7,1.82-9.37,4.64-14.34,6.36-1.07.38-8.56,3.25-8.53,1.37,2.63-1.72,6.14-2.31,9.12-3.48,2.85-1.11,5.6-2.67,8.51-3.63,1.22-.41,3.09-.24,4.08-.76.56-.3.6-1.16,1.57-1.71,1.88-1.05,6.48-1.88,8.93-2.78,10.91-4.04,21.68-8.48,32.65-12.36,4.08-1.44,9.07-2.5,12.93-4.19.62-.27.7-.06.57-1M796.56,163.69c-5.21.16-11.83-2.67-16.76-1.23-8.53,2.5-17.62,6.5-26.21,9.35-14.83,4.92-29.64,9.14-44.01,15.42-1.17.51-6.25,2.64-6.21,3.68l3.81.58c16.66-.16,30.43-7.79,45.81-13.08,14.01-4.81,28.43-8.6,42.48-13.34l1.09-1.37ZM806.92,165.03c-4.15-.23-8.2,1.3-12.15,2.48-19.14,5.74-40.78,13.12-59.43,20.26-.49.18-2.16.58-1.81,1.32.75.99,1.78.73,2.81.58,2.3-.34,5.97-2.37,8.54-3.16,3.43-1.06,4.05-1.08,7.3-2.61,11.11-5.21,26.89-9.49,38.88-13.34,4.64-1.49,10.61-2.69,14.96-4.43.72-.29,1.1.04.89-1.1M765.05,183.48l53.12-16.42c-2.89-2.16-6,.52-8.64,1.26-4.74,1.33-9.71,2.11-14.41,3.59-6.4,2.02-12.37,5.27-18.75,7.37-3.67,1.21-7.52,2.16-11.33,2.86v1.34ZM825.61,199.23h-10.59v1.79l16.46.43c14.5,3.03,28.9-3.12,43.07-6.41,6.91-1.6,13.94-2.74,20.81-4.4,8.12-1.96,16.2-5.29,24.39-7.12l1.09-1.38c-8.4-1.62-16.43-4.81-24.67-7.07-2.14-.58-5.95-1.98-7.98-1.97-1.74.01-2.75,1.11-4.15,1.29-13.6,1.71-23.15,10.27-35.39,15.48-2.96,1.26-12.58,3.71-14.01,5.35-1.11,1.28-.94,3.95-3.58,3.05-.72-.25-.71-1.96-2.65-1.65-1.93.31-1.32,2.36-2.81,2.62M764.6,183.94c-3.37.94-7.95,1.73-11.07,3.11-.68.3-1.26.47-1.09,1.38l10.91-3.26,1.25-1.23ZM480.46,203.72h-8.79c-1.31,1.08-.58,1.65.88,1.82,2.24.27,6.45.12,7.91-1.82M927.15,209.12l-10.76.64-.95.92c.57,2.48,9.12.32,10.81-.46.69-.31,1.11.06.89-1.11M372.84,212.27c-1.45-.86-2.65.04-3.82,0-7.89-.24-23.38-2.16-30.05,1.01-2.02.96-4.34,2.88-6.56,3.79-3.22,1.34-6.83,1.79-9.86,3.65l-1.48-1.47c1.12-1.48,3.39-1.71,4.66-2.55,1.54-1.01,2.81-3.03,4.79-3.54-.04-2.62-5.34-.13-6.87.57-6.57,3-13.04,6.59-19.6,9.66-1.79.83-11.72,4.44-12.06,5.08-.17.33-.24.65-.14,1.02,3.96,7.46,11.68,5.7,18.52,4.27,1.61-.34,7.82-1.78,8.87-2.38,1.16-.66.88-1.73.95-2.87.37-.41,7.04-.8,8.2-1.03,2.36-.47,2.46-2.71,5.26-3.29,7.58-1.6,15.03-3.48,22.57-5.35,2.76-.69,5.51-2.65,8.4-3.3,3.37-.75,3.65-.64,6.87-2.13.53-.24,1.24-.44,1.36-1.11M917.25,217.22c-.34-.36-6.08,1.53-6.75,2.47-.07,1.77,5.83-1.28,6.48-1.09l.27-1.39ZM722.71,256.81c-.72-.58-6.62.46-7.88.44-4.13-.05-9.64-1.46-13.49-1.37-1.52.04-2.79.63-3.38,2.05.42.74.95.54,1.57.68,4.79,1.04,12.76.07,17.59-.42,1.63-.17,3.53.27,5.04-.37.64-.27.68-.12.55-1.01M740.06,256.8h-11.04c-.21,1.26.27.76.99,1.02,3.42,1.24,7.21.79,10.5-.12l-.45-.9ZM685.79,257.71c-12.28-1.17-24.67.17-36.92.44v1.35c12.09-.21,24.15,1.26,36.18-.52l.75-1.27ZM696.6,260.4c1.41-1.18-6.65-4.05-7.65-3.14-.07,1.88,2.05,1.13,3.17,1.55,1.43.53,2.44,2.18,4.48,1.59M724.13,263.03c.71.24,3.89.32,3.54-1.05-1.4-1.23-3.24-1.5-4.95-2.03l1.41,3.08ZM47.6,284.38c-2.1-1.79-7.62.28-10.13,1.1-1.42.46-9.45,3.16-9.11,4.84.51.75,1.22.72,2.02.72,2.53-.02,6.76-.37,9.33-.61,1.36-.13,9.72-1.09,9.79-1.89-.71-1.06-.96-3.34-1.91-4.15"/>
  <g>
    <path class="cls-1" d="M44.13,151.14h99.87v-19.62H44.13v19.62ZM44.13,86.61h98.31v-19.62H44.13v19.62ZM44.13,22.07h99.87V2.45H44.13v19.62Z"/>
    <path class="cls-1" d="M841.15,151.14h99.87v-19.62h-99.87v19.62ZM841.15,86.61h98.31v-19.62h-98.31v19.62ZM841.15,22.07h99.87V2.45h-99.87v19.62Z"/>
    <polygon class="cls-2" points="284 151.14 284 131.52 216.45 131.52 216.45 2.45 194.16 2.45 194.16 151.14 284 151.14"/>
    <path class="cls-2" d="M471.56,48.15c0,15.6-11.36,26.08-27.41,26.08h-37.46V22.07h37.46c16.05,0,27.41,10.48,27.41,26.09ZM406.69,151.14v-57.29h40.35c30.32,0,47.48-20.95,47.48-45.69S477.58,2.45,447.04,2.45h-62.64v148.69h22.29Z"/>
    <polygon class="cls-2" points="576.38 37.96 624.98 151.14 649.5 151.14 583.9 2.13 569.03 2.27 503.48 151.14 528 151.14 576.38 37.96"/>
    <path class="cls-2" d="M681.77,130.19c12.71,14.04,32.1,23.63,58.63,23.63,40.13,0,56.18-21.63,56.18-44.81,0-31.65-28.31-39.23-52.61-45.69-18.5-4.68-34.55-8.92-34.55-22.3,0-12.48,11.37-20.95,27.86-20.95s31.66,5.35,43.03,17.39l12.93-16.49c-13.15-13.37-31.21-20.73-54.17-20.73-30.99,0-52.61,17.84-52.61,42.36,0,30.32,27.64,37.23,51.5,43.46,18.95,4.91,35.89,9.37,35.89,24.97,0,10.7-8.47,22.96-32.55,22.96-20.73,0-36.78-9.81-46.82-20.95l-12.71,17.17Z"/>
    <path class="cls-2" d="M1115.36,76.91c0,32.55-20.51,57.06-51.94,57.06s-51.94-24.52-51.94-57.06,20.06-57.07,51.94-57.07,51.94,24.3,51.94,57.07ZM988.52,76.91c0,44.14,30.54,76.9,74.9,76.9s74.9-32.77,74.9-76.9S1107.78,0,1063.42,0s-74.9,32.77-74.9,76.91Z"/>
    <polygon class="cls-1" points="318.62 61.16 322.51 73.14 335.1 73.14 324.91 80.54 328.81 92.52 318.62 85.11 308.44 92.52 312.33 80.54 302.14 73.14 314.73 73.14 318.62 61.16"/>
  </g>
  <g>
    <g>
      <path class="cls-2" d="M226.28,377.66h-25.04l-4.73,11.57h-4.51l19.26-47.05h5.01l19.26,47.05h-4.51l-4.73-11.57ZM202.51,373.99h22.5l-11.29-27.86-11.22,27.86Z"/>
      <path class="cls-2" d="M280.76,342.18h4.09v28.92c0,9.52,5.01,15.3,14.25,15.3s14.25-5.78,14.25-15.3v-28.92h4.09v28.99c0,11.64-6.21,18.9-18.34,18.9s-18.34-7.34-18.34-18.9v-28.99Z"/>
      <path class="cls-2" d="M379.47,345.85h-15.38v-3.67h34.85v3.67h-15.38v43.38h-4.09v-43.38Z"/>
      <path class="cls-2" d="M466.67,341.4c13.75,0,22.85,10.58,22.85,24.34s-9.1,24.34-22.85,24.34-22.85-10.58-22.85-24.34,9.03-24.34,22.85-24.34ZM466.67,345.07c-11.43,0-18.62,8.75-18.62,20.67s7.19,20.67,18.62,20.67,18.62-8.82,18.62-20.67-7.34-20.67-18.62-20.67Z"/>
      <path class="cls-2" d="M597.77,341.4c7.76,0,13.4,3.1,17.71,8.04l-3.03,2.18c-3.31-3.95-8.67-6.56-14.67-6.56-11.07,0-19.61,8.4-19.61,20.67s8.53,20.74,19.61,20.74c6.28,0,11.22-3.1,13.83-5.71v-11.22h-17.85v-3.67h21.87v16.43c-4.23,4.66-10.44,7.83-17.85,7.83-13.26,0-23.84-9.88-23.84-24.41s10.58-24.34,23.84-24.34Z"/>
      <path class="cls-2" d="M678.56,369.76h-10.37v19.47h-4.02v-47.05h17.56c8.11,0,14.32,5.15,14.32,13.75s-6.07,13.26-13.05,13.54l13.62,19.75h-4.87l-13.19-19.47ZM681.38,345.85h-13.19v20.24h13.19c6.21,0,10.44-4.23,10.44-10.15s-4.23-10.09-10.44-10.09Z"/>
      <path class="cls-2" d="M765.48,341.4c13.75,0,22.86,10.58,22.86,24.34s-9.1,24.34-22.86,24.34-22.85-10.58-22.85-24.34,9.03-24.34,22.85-24.34ZM765.48,345.07c-11.43,0-18.62,8.75-18.62,20.67s7.2,20.67,18.62,20.67,18.62-8.82,18.62-20.67-7.34-20.67-18.62-20.67Z"/>
      <path class="cls-2" d="M836.61,342.18h4.09v28.92c0,9.52,5.01,15.3,14.25,15.3s14.25-5.78,14.25-15.3v-28.92h4.09v28.99c0,11.64-6.21,18.9-18.34,18.9s-18.34-7.34-18.34-18.9v-28.99Z"/>
      <path class="cls-2" d="M923.32,342.18h17.63c9.03,0,14.18,6.35,14.18,13.75s-5.22,13.75-14.18,13.75h-13.61v19.54h-4.02v-47.05ZM940.53,345.85h-13.19v20.17h13.19c6.21,0,10.37-4.16,10.37-10.08s-4.16-10.09-10.37-10.09Z"/>
    </g>
    <polygon class="cls-1" points="155.09 357.33 157.14 363.65 163.78 363.65 158.41 367.56 160.46 373.87 155.09 369.97 149.72 373.87 151.77 367.56 146.4 363.65 153.04 363.65 155.09 357.33"/>
    <polygon class="cls-1" points="992.52 357.33 994.57 363.65 1001.21 363.65 995.84 367.56 997.89 373.87 992.52 369.97 987.14 373.87 989.19 367.56 983.82 363.65 990.47 363.65 992.52 357.33"/>
  </g>
</svg>